<svg width="88" height="86" viewBox="0 0 88 86" fill="none" xmlns="http://www.w3.org/2000/svg">
<g id="Group 1050">
<path id="Ellipse 179" d="M44 86C68.3005 86 88 66.7482 88 43C88 19.2518 68.3005 0 44 0C19.6995 0 0 19.2518 0 43C0 66.7482 19.6995 86 44 86Z" fill="#7A9DC6"/>
<path id="Icon material-zoom-out-map" d="M50.333 24L55.189 28.856L49.089 34.915L52.089 37.915L58.148 31.815L63 36.667V24H50.333ZM25 36.667L29.856 31.811L35.915 37.911L38.915 34.911L32.815 28.852L37.667 24H25V36.667ZM37.667 62L32.811 57.144L38.911 51.085L35.911 48.085L29.852 54.185L25 49.333V62H37.667ZM63 49.333L58.144 54.189L52.085 48.089L49.085 51.089L55.185 57.148L50.333 62H63V49.333Z" fill="white"/>
</g>
</svg>
